<svg width="24" height="24" viewBox="0 0 16 16" fill="none" xmlns="http://www.w3.org/2000/svg">
<path d="M2.82665 8.16667C2.56305 7.90482 2.35421 7.59313 2.21228 7.24976C2.07035 6.90639 1.99819 6.53821 1.99998 6.16667C1.99998 5.41522 2.29849 4.69455 2.82984 4.1632C3.3612 3.63184 4.08187 3.33333 4.83331 3.33333C5.88665 3.33333 6.80665 3.90667 7.29331 4.76H8.03998C8.28739 4.32604 8.64538 3.96539 9.07751 3.71478C9.50963 3.46418 10.0004 3.33256 10.5 3.33333C11.2514 3.33333 11.9721 3.63184 12.5034 4.1632C13.0348 4.69455 13.3333 5.41522 13.3333 6.16667C13.3333 6.94667 13 7.66667 12.5066 8.16667L7.66665 13L2.82665 8.16667ZM12.9733 8.64C13.6066 8 14 7.13333 14 6.16667C14 5.23841 13.6312 4.34817 12.9749 3.69179C12.3185 3.03542 11.4282 2.66667 10.5 2.66667C9.33331 2.66667 8.29998 3.23333 7.66665 4.11333C7.34338 3.66433 6.91772 3.29888 6.42497 3.04729C5.93221 2.79569 5.38658 2.66521 4.83331 2.66667C3.90506 2.66667 3.01482 3.03542 2.35844 3.69179C1.70206 4.34817 1.33331 5.23841 1.33331 6.16667C1.33331 7.13333 1.72665 8 2.35998 8.64L7.66665 13.9467L12.9733 8.64Z" fill="#A6A6A6"/>
</svg>
