<svg width="32" height="32" viewBox="0 0 32 32" fill="none" xmlns="http://www.w3.org/2000/svg">
<path d="M22.4004 16.4C22.4004 15.8696 22.6111 15.3609 22.9862 14.9858C23.3612 14.6107 23.87 14.4 24.4004 14.4C24.9308 14.4 25.4395 14.6107 25.8146 14.9858C26.1897 15.3609 26.4004 15.8696 26.4004 16.4C26.4004 16.9304 26.1897 17.4391 25.8146 17.8142C25.4395 18.1893 24.9308 18.4 24.4004 18.4C23.87 18.4 23.3612 18.1893 22.9862 17.8142C22.6111 17.4391 22.4004 16.9304 22.4004 16.4ZM14.4004 16.4C14.4004 15.8696 14.6111 15.3609 14.9862 14.9858C15.3612 14.6107 15.87 14.4 16.4004 14.4C16.9308 14.4 17.4395 14.6107 17.8146 14.9858C18.1897 15.3609 18.4004 15.8696 18.4004 16.4C18.4004 16.9304 18.1897 17.4391 17.8146 17.8142C17.4395 18.1893 16.9308 18.4 16.4004 18.4C15.87 18.4 15.3612 18.1893 14.9862 17.8142C14.6111 17.4391 14.4004 16.9304 14.4004 16.4ZM6.40039 16.4C6.40039 15.8696 6.6111 15.3609 6.98618 14.9858C7.36125 14.6107 7.86996 14.4 8.40039 14.4C8.93082 14.4 9.43953 14.6107 9.8146 14.9858C10.1897 15.3609 10.4004 15.8696 10.4004 16.4C10.4004 16.9304 10.1897 17.4391 9.8146 17.8142C9.43953 18.1893 8.93082 18.4 8.40039 18.4C7.86996 18.4 7.36125 18.1893 6.98618 17.8142C6.6111 17.4391 6.40039 16.9304 6.40039 16.4Z" fill="black"/>
</svg>
