<svg width="94" height="26" viewBox="0 0 94 26" fill="none" xmlns="http://www.w3.org/2000/svg">
<path d="M3.61328 22.4531C3.97786 22.5833 4.34896 22.6908 4.72656 22.7754C5.10417 22.8665 5.46875 22.9382 5.82031 22.9902C6.17839 23.0488 6.52018 23.0879 6.8457 23.1074C7.17122 23.1335 7.46094 23.1465 7.71484 23.1465C8.48307 23.1465 9.15039 23.0521 9.7168 22.8633C10.2897 22.681 10.765 22.4336 11.1426 22.1211C11.5267 21.8086 11.8132 21.444 12.002 21.0273C12.1908 20.6172 12.2852 20.181 12.2852 19.7188V19.2207C12.0378 19.39 11.748 19.5527 11.416 19.709C11.084 19.8652 10.7194 20.002 10.3223 20.1191C9.92513 20.2363 9.50195 20.3307 9.05273 20.4023C8.61003 20.474 8.15104 20.5098 7.67578 20.5098C6.73177 20.5098 5.85938 20.3698 5.05859 20.0898C4.25781 19.8034 3.56445 19.4062 2.97852 18.8984C2.39258 18.3841 1.93359 17.7689 1.60156 17.0527C1.27604 16.3366 1.11328 15.5423 1.11328 14.6699C1.11328 13.778 1.28581 12.9707 1.63086 12.248C1.97591 11.5189 2.45117 10.8971 3.05664 10.3828C3.66862 9.86849 4.39128 9.47135 5.22461 9.19141C6.05794 8.91146 6.96289 8.77148 7.93945 8.77148C8.35612 8.77148 8.76953 8.79753 9.17969 8.84961C9.58984 8.90169 9.98047 8.97331 10.3516 9.06445C10.7292 9.1556 11.0807 9.26628 11.4062 9.39648C11.7383 9.52018 12.0312 9.6569 12.2852 9.80664V8.97656H15.1758V19.1816C15.1758 20.2298 15.0163 21.1576 14.6973 21.9648C14.3783 22.7721 13.9095 23.4492 13.291 23.9961C12.679 24.5495 11.9173 24.9661 11.0059 25.2461C10.0944 25.5326 9.04948 25.6758 7.87109 25.6758C7.44792 25.6758 7.00846 25.6562 6.55273 25.6172C6.09701 25.5846 5.63802 25.5326 5.17578 25.4609C4.72005 25.3958 4.26758 25.3145 3.81836 25.2168C3.37565 25.1257 2.94922 25.0182 2.53906 24.8945L3.61328 22.4531ZM4.15039 14.6406C4.15039 15.1029 4.24154 15.5391 4.42383 15.9492C4.61263 16.3529 4.87956 16.7077 5.22461 17.0137C5.56966 17.3132 5.98633 17.5508 6.47461 17.7266C6.96289 17.8958 7.51302 17.9805 8.125 17.9805C8.52214 17.9805 8.91602 17.9447 9.30664 17.873C9.70378 17.7949 10.0814 17.6875 10.4395 17.5508C10.804 17.4141 11.1426 17.248 11.4551 17.0527C11.7741 16.8574 12.0508 16.6393 12.2852 16.3984V12.5996C11.9922 12.3652 11.6829 12.1667 11.3574 12.0039C11.0319 11.8411 10.6999 11.7077 10.3613 11.6035C10.0228 11.4993 9.68099 11.4245 9.33594 11.3789C8.99089 11.3268 8.6556 11.3008 8.33008 11.3008C7.66602 11.3008 7.07357 11.3887 6.55273 11.5645C6.03841 11.7402 5.60221 11.9811 5.24414 12.2871C4.89258 12.5866 4.6224 12.9382 4.43359 13.3418C4.24479 13.7454 4.15039 14.1784 4.15039 14.6406ZM20.3902 7.4043C20.1038 7.4043 19.8434 7.36523 19.609 7.28711C19.3811 7.20247 19.1858 7.0918 19.023 6.95508C18.8603 6.81185 18.7333 6.64909 18.6422 6.4668C18.5576 6.27799 18.5152 6.07943 18.5152 5.87109C18.5152 5.65625 18.5576 5.45768 18.6422 5.27539C18.7333 5.08659 18.8603 4.92383 19.023 4.78711C19.1858 4.65039 19.3811 4.54297 19.609 4.46484C19.8434 4.38021 20.1038 4.33789 20.3902 4.33789C20.6832 4.33789 20.9436 4.38021 21.1715 4.46484C21.4059 4.54297 21.6044 4.65039 21.7672 4.78711C21.9299 4.92383 22.0536 5.08659 22.1383 5.27539C22.2294 5.45768 22.275 5.65625 22.275 5.87109C22.275 6.07943 22.2294 6.27799 22.1383 6.4668C22.0536 6.64909 21.9299 6.81185 21.7672 6.95508C21.6044 7.0918 21.4059 7.20247 21.1715 7.28711C20.9436 7.36523 20.6832 7.4043 20.3902 7.4043ZM18.9449 8.97656H21.8355V20.5H18.9449V8.97656ZM26.4055 16.9648C27.1867 17.4336 28.0461 17.7786 28.9836 18C29.9211 18.2214 30.8814 18.332 31.8645 18.332C32.5285 18.332 33.0819 18.2865 33.5246 18.1953C33.9673 18.1042 34.3221 17.987 34.5891 17.8438C34.856 17.7005 35.0448 17.5378 35.1555 17.3555C35.2661 17.1732 35.3215 16.9876 35.3215 16.7988C35.3215 16.5254 35.201 16.291 34.9602 16.0957C34.7258 15.9004 34.3352 15.8027 33.7883 15.8027C33.5344 15.8027 33.2609 15.819 32.968 15.8516C32.675 15.8841 32.3658 15.9199 32.0402 15.959C31.7212 15.9915 31.3859 16.0241 31.0344 16.0566C30.6893 16.0892 30.3378 16.1055 29.9797 16.1055C29.1984 16.1055 28.5311 16.0208 27.9777 15.8516C27.4309 15.6823 26.9849 15.4512 26.6398 15.1582C26.2948 14.8652 26.0441 14.5202 25.8879 14.123C25.7316 13.7194 25.6535 13.2865 25.6535 12.8242C25.6535 12.2383 25.7902 11.6979 26.0637 11.2031C26.3371 10.7083 26.7277 10.2819 27.2355 9.92383C27.7434 9.55924 28.3553 9.27604 29.0715 9.07422C29.7941 8.8724 30.5982 8.77148 31.4836 8.77148C31.9458 8.77148 32.4276 8.80078 32.9289 8.85938C33.4367 8.91146 33.9348 8.98307 34.423 9.07422C34.9113 9.16536 35.3801 9.27279 35.8293 9.39648C36.2785 9.51367 36.6757 9.64062 37.0207 9.77734L36.1125 12.0234C35.3768 11.75 34.6411 11.5352 33.9055 11.3789C33.1763 11.2161 32.4243 11.1348 31.6496 11.1348C31.1092 11.1348 30.6503 11.1771 30.2727 11.2617C29.9016 11.3398 29.5988 11.4473 29.3645 11.584C29.1301 11.7142 28.9576 11.8672 28.8469 12.043C28.7427 12.2122 28.6906 12.3913 28.6906 12.5801C28.6906 12.7168 28.7167 12.8405 28.7687 12.9512C28.8273 13.0618 28.9185 13.1595 29.0422 13.2441C29.1724 13.3223 29.3384 13.3841 29.5402 13.4297C29.7486 13.4688 30.0025 13.4883 30.302 13.4883C30.5754 13.4883 30.8651 13.472 31.1711 13.4395C31.4771 13.4069 31.7961 13.3743 32.1281 13.3418C32.4602 13.3027 32.802 13.2669 33.1535 13.2344C33.5116 13.2018 33.8762 13.1855 34.2473 13.1855C34.9374 13.1855 35.5396 13.2669 36.0539 13.4297C36.5747 13.5924 37.0044 13.8203 37.343 14.1133C37.6815 14.4062 37.9354 14.7513 38.1047 15.1484C38.274 15.5456 38.3586 15.9785 38.3586 16.4473C38.3586 17.0527 38.2186 17.6159 37.9387 18.1367C37.6587 18.6576 37.2421 19.11 36.6887 19.4941C36.1353 19.8717 35.4452 20.168 34.6184 20.3828C33.798 20.5977 32.8475 20.7051 31.7668 20.7051C31.1027 20.7051 30.4615 20.6628 29.843 20.5781C29.2245 20.5 28.6353 20.3926 28.0754 20.2559C27.5155 20.1126 26.9882 19.9466 26.4934 19.7578C26.0051 19.569 25.5591 19.3672 25.1555 19.1523L26.4055 16.9648ZM43.1043 11.1445H40.3211V8.97656H43.1043V5.39258H45.9949V8.97656H48.7781V11.1445H45.9949V20.5H43.1043V11.1445ZM51.0531 14.7383C51.0531 13.9115 51.2191 13.1367 51.5512 12.4141C51.8897 11.6914 52.3682 11.0599 52.9867 10.5195C53.6117 9.97917 54.3637 9.55273 55.2426 9.24023C56.128 8.92773 57.1208 8.77148 58.2211 8.77148C59.3214 8.77148 60.3109 8.92773 61.1898 9.24023C62.0753 9.55273 62.8272 9.97917 63.4457 10.5195C64.0707 11.0599 64.5492 11.6914 64.8812 12.4141C65.2198 13.1367 65.3891 13.9115 65.3891 14.7383C65.3891 15.5651 65.2198 16.3398 64.8812 17.0625C64.5492 17.7852 64.0707 18.4167 63.4457 18.957C62.8272 19.4974 62.0753 19.9238 61.1898 20.2363C60.3109 20.5488 59.3214 20.7051 58.2211 20.7051C57.1208 20.7051 56.128 20.5488 55.2426 20.2363C54.3637 19.9238 53.6117 19.4974 52.9867 18.957C52.3682 18.4167 51.8897 17.7852 51.5512 17.0625C51.2191 16.3398 51.0531 15.5651 51.0531 14.7383ZM54.0902 14.7383C54.0902 15.2005 54.1814 15.64 54.3637 16.0566C54.5525 16.4668 54.8227 16.8314 55.1742 17.1504C55.5323 17.4629 55.9652 17.7135 56.473 17.9023C56.9874 18.0846 57.5701 18.1758 58.2211 18.1758C58.8721 18.1758 59.4516 18.0846 59.9594 17.9023C60.4737 17.7135 60.9066 17.4629 61.2582 17.1504C61.6163 16.8314 61.8865 16.4668 62.0687 16.0566C62.2576 15.64 62.352 15.2005 62.352 14.7383C62.352 14.276 62.2576 13.8366 62.0687 13.4199C61.8865 13.0033 61.6163 12.6387 61.2582 12.3262C60.9066 12.0072 60.4737 11.7565 59.9594 11.5742C59.4516 11.3854 58.8721 11.291 58.2211 11.291C57.5701 11.291 56.9874 11.3854 56.473 11.5742C55.9652 11.7565 55.5323 12.0072 55.1742 12.3262C54.8227 12.6387 54.5525 13.0033 54.3637 13.4199C54.1814 13.8366 54.0902 14.276 54.0902 14.7383ZM68.709 8.97656H71.5996V10.6367C72.2376 10.1615 72.9115 9.7513 73.6211 9.40625C74.3307 9.0612 75.0371 8.79753 75.7402 8.61523L76.5898 11.2617C75.4766 11.3724 74.4967 11.623 73.6504 12.0137C72.8105 12.3978 72.127 12.9414 71.5996 13.6445V20.5H68.709V8.97656ZM80.525 21.9453C80.8245 22.1406 81.15 22.3132 81.5016 22.4629C81.8531 22.6126 82.2177 22.7363 82.5953 22.834C82.9794 22.9316 83.3701 23.0033 83.7672 23.0488C84.1643 23.1009 84.5582 23.127 84.9488 23.127C86.277 23.127 87.2991 22.8405 88.0152 22.2676C88.7379 21.7012 89.0992 20.8483 89.0992 19.709V19.3184C88.8453 19.4941 88.5589 19.6569 88.2398 19.8066C87.9273 19.9499 87.5888 20.0736 87.2242 20.1777C86.8661 20.2819 86.4853 20.3633 86.0816 20.4219C85.6845 20.474 85.2809 20.5 84.8707 20.5C83.9918 20.5 83.204 20.373 82.5074 20.1191C81.8173 19.8587 81.2314 19.4811 80.7496 18.9863C80.2744 18.485 79.9098 17.8698 79.6559 17.1406C79.402 16.4115 79.275 15.5781 79.275 14.6406V8.97656H82.1559V13.8398C82.1559 15.2331 82.4195 16.2617 82.9469 16.9258C83.4807 17.5833 84.3206 17.9121 85.4664 17.9121C86.2737 17.9121 86.9866 17.7721 87.6051 17.4922C88.2301 17.2057 88.7281 16.8411 89.0992 16.3984V8.97656H91.9898V19.1816C91.9898 20.2819 91.8336 21.2357 91.5211 22.043C91.2086 22.8568 90.7529 23.5306 90.1539 24.0645C89.5615 24.5983 88.8323 24.9954 87.9664 25.2559C87.1005 25.5228 86.1174 25.6562 85.0172 25.6562C83.943 25.6562 82.9404 25.5423 82.0094 25.3145C81.0784 25.0866 80.2255 24.7773 79.4508 24.3867L80.525 21.9453Z" fill="black"/>
<path d="M25 1.5H93" stroke="#111111" stroke-width="1.5"/>
</svg>
