<svg width="91" height="22" viewBox="0 0 91 22" fill="none" xmlns="http://www.w3.org/2000/svg">
<path d="M2.61328 18.4531C2.97786 18.5833 3.34896 18.6908 3.72656 18.7754C4.10417 18.8665 4.46875 18.9382 4.82031 18.9902C5.17839 19.0488 5.52018 19.0879 5.8457 19.1074C6.17122 19.1335 6.46094 19.1465 6.71484 19.1465C7.48307 19.1465 8.15039 19.0521 8.7168 18.8633C9.28971 18.681 9.76497 18.4336 10.1426 18.1211C10.5267 17.8086 10.8132 17.444 11.002 17.0273C11.1908 16.6172 11.2852 16.181 11.2852 15.7188V15.2207C11.0378 15.39 10.748 15.5527 10.416 15.709C10.084 15.8652 9.7194 16.002 9.32227 16.1191C8.92513 16.2363 8.50195 16.3307 8.05273 16.4023C7.61003 16.474 7.15104 16.5098 6.67578 16.5098C5.73177 16.5098 4.85938 16.3698 4.05859 16.0898C3.25781 15.8034 2.56445 15.4062 1.97852 14.8984C1.39258 14.3841 0.933594 13.7689 0.601562 13.0527C0.276042 12.3366 0.113281 11.5423 0.113281 10.6699C0.113281 9.77799 0.285807 8.9707 0.630859 8.24805C0.975911 7.51888 1.45117 6.89714 2.05664 6.38281C2.66862 5.86849 3.39128 5.47135 4.22461 5.19141C5.05794 4.91146 5.96289 4.77148 6.93945 4.77148C7.35612 4.77148 7.76953 4.79753 8.17969 4.84961C8.58984 4.90169 8.98047 4.97331 9.35156 5.06445C9.72917 5.1556 10.0807 5.26628 10.4062 5.39648C10.7383 5.52018 11.0312 5.6569 11.2852 5.80664V4.97656H14.1758V15.1816C14.1758 16.2298 14.0163 17.1576 13.6973 17.9648C13.3783 18.7721 12.9095 19.4492 12.291 19.9961C11.679 20.5495 10.9173 20.9661 10.0059 21.2461C9.0944 21.5326 8.04948 21.6758 6.87109 21.6758C6.44792 21.6758 6.00846 21.6562 5.55273 21.6172C5.09701 21.5846 4.63802 21.5326 4.17578 21.4609C3.72005 21.3958 3.26758 21.3145 2.81836 21.2168C2.37565 21.1257 1.94922 21.0182 1.53906 20.8945L2.61328 18.4531ZM3.15039 10.6406C3.15039 11.1029 3.24154 11.5391 3.42383 11.9492C3.61263 12.3529 3.87956 12.7077 4.22461 13.0137C4.56966 13.3132 4.98633 13.5508 5.47461 13.7266C5.96289 13.8958 6.51302 13.9805 7.125 13.9805C7.52214 13.9805 7.91602 13.9447 8.30664 13.873C8.70378 13.7949 9.08138 13.6875 9.43945 13.5508C9.80404 13.4141 10.1426 13.248 10.4551 13.0527C10.7741 12.8574 11.0508 12.6393 11.2852 12.3984V8.59961C10.9922 8.36523 10.6829 8.16667 10.3574 8.00391C10.0319 7.84115 9.69987 7.70768 9.36133 7.60352C9.02279 7.49935 8.68099 7.42448 8.33594 7.37891C7.99089 7.32682 7.6556 7.30078 7.33008 7.30078C6.66602 7.30078 6.07357 7.38867 5.55273 7.56445C5.03841 7.74023 4.60221 7.98112 4.24414 8.28711C3.89258 8.58659 3.6224 8.93815 3.43359 9.3418C3.24479 9.74544 3.15039 10.1784 3.15039 10.6406ZM19.3902 3.4043C19.1038 3.4043 18.8434 3.36523 18.609 3.28711C18.3811 3.20247 18.1858 3.0918 18.023 2.95508C17.8603 2.81185 17.7333 2.64909 17.6422 2.4668C17.5576 2.27799 17.5152 2.07943 17.5152 1.87109C17.5152 1.65625 17.5576 1.45768 17.6422 1.27539C17.7333 1.08659 17.8603 0.923828 18.023 0.787109C18.1858 0.650391 18.3811 0.542969 18.609 0.464844C18.8434 0.380208 19.1038 0.337891 19.3902 0.337891C19.6832 0.337891 19.9436 0.380208 20.1715 0.464844C20.4059 0.542969 20.6044 0.650391 20.7672 0.787109C20.9299 0.923828 21.0536 1.08659 21.1383 1.27539C21.2294 1.45768 21.275 1.65625 21.275 1.87109C21.275 2.07943 21.2294 2.27799 21.1383 2.4668C21.0536 2.64909 20.9299 2.81185 20.7672 2.95508C20.6044 3.0918 20.4059 3.20247 20.1715 3.28711C19.9436 3.36523 19.6832 3.4043 19.3902 3.4043ZM17.9449 4.97656H20.8355V16.5H17.9449V4.97656ZM25.4055 12.9648C26.1867 13.4336 27.0461 13.7786 27.9836 14C28.9211 14.2214 29.8814 14.332 30.8645 14.332C31.5285 14.332 32.0819 14.2865 32.5246 14.1953C32.9673 14.1042 33.3221 13.987 33.5891 13.8438C33.856 13.7005 34.0448 13.5378 34.1555 13.3555C34.2661 13.1732 34.3215 12.9876 34.3215 12.7988C34.3215 12.5254 34.201 12.291 33.9602 12.0957C33.7258 11.9004 33.3352 11.8027 32.7883 11.8027C32.5344 11.8027 32.2609 11.819 31.968 11.8516C31.675 11.8841 31.3658 11.9199 31.0402 11.959C30.7212 11.9915 30.3859 12.0241 30.0344 12.0566C29.6893 12.0892 29.3378 12.1055 28.9797 12.1055C28.1984 12.1055 27.5311 12.0208 26.9777 11.8516C26.4309 11.6823 25.9849 11.4512 25.6398 11.1582C25.2948 10.8652 25.0441 10.5202 24.8879 10.123C24.7316 9.7194 24.6535 9.28646 24.6535 8.82422C24.6535 8.23828 24.7902 7.69792 25.0637 7.20312C25.3371 6.70833 25.7277 6.2819 26.2355 5.92383C26.7434 5.55924 27.3553 5.27604 28.0715 5.07422C28.7941 4.8724 29.5982 4.77148 30.4836 4.77148C30.9458 4.77148 31.4276 4.80078 31.9289 4.85938C32.4367 4.91146 32.9348 4.98307 33.423 5.07422C33.9113 5.16536 34.3801 5.27279 34.8293 5.39648C35.2785 5.51367 35.6757 5.64062 36.0207 5.77734L35.1125 8.02344C34.3768 7.75 33.6411 7.53516 32.9055 7.37891C32.1763 7.21615 31.4243 7.13477 30.6496 7.13477C30.1092 7.13477 29.6503 7.17708 29.2727 7.26172C28.9016 7.33984 28.5988 7.44727 28.3645 7.58398C28.1301 7.71419 27.9576 7.86719 27.8469 8.04297C27.7427 8.21224 27.6906 8.39128 27.6906 8.58008C27.6906 8.7168 27.7167 8.84049 27.7687 8.95117C27.8273 9.06185 27.9185 9.15951 28.0422 9.24414C28.1724 9.32227 28.3384 9.38411 28.5402 9.42969C28.7486 9.46875 29.0025 9.48828 29.302 9.48828C29.5754 9.48828 29.8651 9.47201 30.1711 9.43945C30.4771 9.4069 30.7961 9.37435 31.1281 9.3418C31.4602 9.30273 31.802 9.26693 32.1535 9.23438C32.5116 9.20182 32.8762 9.18555 33.2473 9.18555C33.9374 9.18555 34.5396 9.26693 35.0539 9.42969C35.5747 9.59245 36.0044 9.82031 36.343 10.1133C36.6815 10.4062 36.9354 10.7513 37.1047 11.1484C37.274 11.5456 37.3586 11.9785 37.3586 12.4473C37.3586 13.0527 37.2186 13.6159 36.9387 14.1367C36.6587 14.6576 36.2421 15.11 35.6887 15.4941C35.1353 15.8717 34.4452 16.168 33.6184 16.3828C32.798 16.5977 31.8475 16.7051 30.7668 16.7051C30.1027 16.7051 29.4615 16.6628 28.843 16.5781C28.2245 16.5 27.6353 16.3926 27.0754 16.2559C26.5155 16.1126 25.9882 15.9466 25.4934 15.7578C25.0051 15.569 24.5591 15.3672 24.1555 15.1523L25.4055 12.9648ZM42.1043 7.14453H39.3211V4.97656H42.1043V1.39258H44.9949V4.97656H47.7781V7.14453H44.9949V16.5H42.1043V7.14453ZM50.0531 10.7383C50.0531 9.91146 50.2191 9.13672 50.5512 8.41406C50.8897 7.69141 51.3682 7.0599 51.9867 6.51953C52.6117 5.97917 53.3637 5.55273 54.2426 5.24023C55.128 4.92773 56.1208 4.77148 57.2211 4.77148C58.3214 4.77148 59.3109 4.92773 60.1898 5.24023C61.0753 5.55273 61.8272 5.97917 62.4457 6.51953C63.0707 7.0599 63.5492 7.69141 63.8812 8.41406C64.2198 9.13672 64.3891 9.91146 64.3891 10.7383C64.3891 11.5651 64.2198 12.3398 63.8812 13.0625C63.5492 13.7852 63.0707 14.4167 62.4457 14.957C61.8272 15.4974 61.0753 15.9238 60.1898 16.2363C59.3109 16.5488 58.3214 16.7051 57.2211 16.7051C56.1208 16.7051 55.128 16.5488 54.2426 16.2363C53.3637 15.9238 52.6117 15.4974 51.9867 14.957C51.3682 14.4167 50.8897 13.7852 50.5512 13.0625C50.2191 12.3398 50.0531 11.5651 50.0531 10.7383ZM53.0902 10.7383C53.0902 11.2005 53.1814 11.64 53.3637 12.0566C53.5525 12.4668 53.8227 12.8314 54.1742 13.1504C54.5323 13.4629 54.9652 13.7135 55.473 13.9023C55.9874 14.0846 56.5701 14.1758 57.2211 14.1758C57.8721 14.1758 58.4516 14.0846 58.9594 13.9023C59.4737 13.7135 59.9066 13.4629 60.2582 13.1504C60.6163 12.8314 60.8865 12.4668 61.0687 12.0566C61.2576 11.64 61.352 11.2005 61.352 10.7383C61.352 10.276 61.2576 9.83659 61.0687 9.41992C60.8865 9.00326 60.6163 8.63867 60.2582 8.32617C59.9066 8.00716 59.4737 7.75651 58.9594 7.57422C58.4516 7.38542 57.8721 7.29102 57.2211 7.29102C56.5701 7.29102 55.9874 7.38542 55.473 7.57422C54.9652 7.75651 54.5323 8.00716 54.1742 8.32617C53.8227 8.63867 53.5525 9.00326 53.3637 9.41992C53.1814 9.83659 53.0902 10.276 53.0902 10.7383ZM67.709 4.97656H70.5996V6.63672C71.2376 6.16146 71.9115 5.7513 72.6211 5.40625C73.3307 5.0612 74.0371 4.79753 74.7402 4.61523L75.5898 7.26172C74.4766 7.3724 73.4967 7.62305 72.6504 8.01367C71.8105 8.39779 71.127 8.94141 70.5996 9.64453V16.5H67.709V4.97656ZM79.525 17.9453C79.8245 18.1406 80.15 18.3132 80.5016 18.4629C80.8531 18.6126 81.2177 18.7363 81.5953 18.834C81.9794 18.9316 82.3701 19.0033 82.7672 19.0488C83.1643 19.1009 83.5582 19.127 83.9488 19.127C85.277 19.127 86.2991 18.8405 87.0152 18.2676C87.7379 17.7012 88.0992 16.8483 88.0992 15.709V15.3184C87.8453 15.4941 87.5589 15.6569 87.2398 15.8066C86.9273 15.9499 86.5888 16.0736 86.2242 16.1777C85.8661 16.2819 85.4853 16.3633 85.0816 16.4219C84.6845 16.474 84.2809 16.5 83.8707 16.5C82.9918 16.5 82.204 16.373 81.5074 16.1191C80.8173 15.8587 80.2314 15.4811 79.7496 14.9863C79.2744 14.485 78.9098 13.8698 78.6559 13.1406C78.402 12.4115 78.275 11.5781 78.275 10.6406V4.97656H81.1559V9.83984C81.1559 11.2331 81.4195 12.2617 81.9469 12.9258C82.4807 13.5833 83.3206 13.9121 84.4664 13.9121C85.2737 13.9121 85.9866 13.7721 86.6051 13.4922C87.2301 13.2057 87.7281 12.8411 88.0992 12.3984V4.97656H90.9898V15.1816C90.9898 16.2819 90.8336 17.2357 90.5211 18.043C90.2086 18.8568 89.7529 19.5306 89.1539 20.0645C88.5615 20.5983 87.8323 20.9954 86.9664 21.2559C86.1005 21.5228 85.1174 21.6562 84.0172 21.6562C82.943 21.6562 81.9404 21.5423 81.0094 21.3145C80.0784 21.0866 79.2255 20.7773 78.4508 20.3867L79.525 17.9453Z" fill="black"/>
</svg>
